Coordinates
version=1
nRows=16
nColumns=36
inDegrees=yes

Units are S.I. units (second, meters, Newtons, ...)
If the header above contains a line with 'inDegrees', this indicates whether rotational values are in degrees (yes) or radians (no).

endheader
time	pelvis_tilt	pelvis_list	pelvis_rotation	pelvis_tx	pelvis_ty	pelvis_tz	hip_flexion_r	hip_adduction_r	hip_rotation_r	knee_angle_r	knee_angle_r_beta	ankle_angle_r	subtalar_angle_r	mtp_angle_r	hip_flexion_l	hip_adduction_l	hip_rotation_l	knee_angle_l	knee_angle_l_beta	ankle_angle_l	subtalar_angle_l	mtp_angle_l	lumbar_extension	lumbar_bending	lumbar_rotation	arm_flex_r	arm_add_r	arm_rot_r	elbow_flex_r	pro_sup_r	arm_flex_l	arm_add_l	arm_rot_l	elbow_flex_l	pro_sup_l
      4.53333330	     -6.74702852	     -4.98762458	      4.63588730	      0.25654981	      0.81541957	      0.00024848	     40.06211776	     -6.06833150	     -3.13349876	     56.11653039	      0.97941822	     16.50310065	    -22.49189131	     -7.49999987	     40.74901546	    -11.90743323	      1.33911397	     61.32178825	      1.07026711	     26.19916432	    -10.20073907	     -7.49999987	    -18.16096592	      1.09274939	     -3.02970347	      9.87113130	     -1.06892063	     14.35661424	    111.99596641	     89.11139484	     20.21055985	     -1.33388120	     21.10448208	    113.99580541	     71.00800270
      4.53750000	     -6.72335715	     -4.98481871	      4.64334763	      0.25969649	      0.81850054	     -0.00462039	     39.75006217	     -6.21466079	     -3.44967538	     56.04645283	      0.97819514	     16.44525796	    -22.58805942	     -7.49999987	     40.40087038	    -11.92466454	      1.06770804	     61.11021320	      1.06657443	     26.24407392	    -10.17797817	     -7.49999987	    -17.71960863	      1.18093531	     -3.04771575	      9.68212164	     -1.18688519	     14.36921227	    111.89744074	     89.14394413	     20.06061506	     -1.31860527	     21.13356657	    114.02211494	     71.01247998
      4.54166670	     -6.46584905	     -4.86721759	      4.74799953	      0.25975853	      0.81914379	     -0.00437034	     39.14005089	     -6.31563757	     -3.54357513	     55.63423833	      0.97100064	     16.14646557	    -22.85315045	     -7.49999987	     39.82700181	    -11.85462870	      0.92641921	     60.93936576	      1.06359258	     26.67501070	     -9.99809416	     -7.49999987	    -17.47237286	      1.05733349	     -3.32611003	      9.90044701	     -1.71234641	     14.83284283	    110.55121325	     88.26225057	     19.75229232	     -1.36942211	     21.13737459	    113.60161641	     70.35338696
      4.54583330	     -6.58596503	     -4.76893830	      4.71952215	      0.25903304	      0.82280768	     -0.00407833	     38.83253462	     -6.33005215	     -3.41714509	     54.89727437	      0.95813819	     16.19221065	    -22.53422559	     -7.49999987	     39.56540488	    -11.61846257	      0.96823678	     60.28840072	      1.05223109	     26.53198957	    -10.27875907	     -7.49999987	    -16.96819274	      1.20371319	     -4.02043893	     10.61864446	     -2.01122141	     16.04234632	    109.26356301	     90.29664277	     18.93599393	     -1.39463779	     20.23663570	    114.28654120	     70.53088217
      4.55000000	     -6.79337580	     -4.77718614	      4.63836941	      0.25904275	      0.82281587	     -0.00380158	     38.83174653	     -6.31861441	     -3.43815010	     54.44555383	      0.95025418	     15.90116522	    -22.65466347	     -7.49999987	     39.55900224	    -11.47044103	      1.08314801	     59.80731032	      1.04383448	     26.09074978	    -10.50363459	     -7.49999987	    -16.52141637	      1.36782032	     -3.68311489	     10.45283704	     -2.58444480	     16.14247067	    109.29752657	     89.71389759	     18.64184614	     -0.93928411	     20.25086434	    114.44185531	     70.25063782
      4.55416670	     -7.06107414	     -4.80127430	      4.64464090	      0.25890872	      0.82942197	     -0.00424207	     38.58953136	     -6.15344014	     -3.23217009	     53.38285994	      0.93170667	     15.78340711	    -22.47546874	     -7.49999987	     39.47438052	    -11.33812360	      1.12534379	     58.95725015	      1.02899813	     25.55695491	    -10.51735388	     -7.49999987	    -16.10172951	      1.58968636	     -3.46887358	     10.41395525	     -3.17372036	     16.06302592	    108.95429119	     89.77291536	     18.58000979	     -0.89092768	     20.23252885	    114.40468260	     70.25502987
      4.55833330	     -7.51540576	     -4.85270839	      4.70104402	      0.25478431	      0.82898592	     -0.00866015	     38.71324302	     -6.13751261	     -2.85332672	     52.40352609	      0.91461407	     15.06557717	    -22.98715668	     -7.49999987	     40.02799323	    -11.05626209	      1.34077038	     58.38587181	      1.01902570	     24.68327323	    -10.88660307	     -7.49999987	    -15.50454664	      1.96603645	     -3.30771943	     10.68155420	     -3.69801147	     16.04924874	    108.14857151	     90.04173149	     18.67108758	     -0.42660782	     20.35268213	    113.58991989	     70.26228605
      4.56250000	     -7.83456650	     -4.70502872	      4.49561535	      0.25504520	      0.83561387	     -0.00888281	     38.45129166	     -5.96600488	     -2.22752411	     51.03929324	      0.89080371	     14.17110375	    -23.53364744	     -7.49999987	     39.86314901	    -10.68614195	      1.32124969	     57.24915848	      0.99918631	     23.72821134	    -11.31234382	     -7.49999987	    -15.05172029	      1.96750511	     -3.18330115	     10.58315115	     -3.80601218	     15.74499505	    107.12966593	     90.18503045	     18.64140230	     -0.12011398	     20.19831677	    112.84301357	     70.20153733
      4.56666670	     -8.28196408	     -4.66961203	      4.61220584	      0.25550854	      0.83828879	     -0.00874766	     38.14267584	     -5.79484170	     -1.60004949	     49.64445498	      0.86645919	     13.23807299	    -24.20326981	     -7.49999987	     39.80890417	    -10.24543147	      1.62572272	     55.95947936	      0.97667716	     22.81129506	    -11.70580226	     -7.49999987	    -14.44511785	      2.08906426	     -3.30490986	     10.08520512	     -3.62672230	     15.46360043	    106.17309111	     89.47982713	     18.62226748	      0.01217343	     20.26121724	    112.16567296	     69.83556913
      4.57083330	     -8.59336690	     -4.60951779	      4.59383907	      0.25898136	      0.83942364	     -0.01369539	     37.51799684	     -5.85940158	     -1.07490716	     48.23070587	      0.84178462	     12.30009307	    -25.09526733	     -7.49999987	     39.33103635	     -9.73089524	      1.88101149	     54.74596252	      0.95549730	     22.12461513	    -12.51812339	     -7.49999987	    -13.54133696	      2.23707318	     -3.61821328	      9.55236375	     -3.38817765	     15.14657025	    104.73757806	     89.02852614	     18.49866729	      0.30544997	     20.18173699	    111.04631552	     69.47715658
      4.57500000	     -9.01365567	     -4.44380386	      4.58493362	      0.25874511	      0.84292520	     -0.01319444	     37.29858669	     -5.90447264	     -0.85533969	     46.93133075	      0.81910624	     11.23498613	    -25.60970204	     -7.49999987	     38.65228430	     -9.22413614	      1.75845810	     53.13588711	      0.92739618	     21.45280039	    -13.28128043	     -7.49999987	    -12.48452760	      2.06409789	     -4.05718925	      9.04584663	     -3.03892152	     14.86922688	    102.98621517	     88.81927083	     18.24291276	      0.64315906	     19.90874840	    109.82334382	     69.23902249
      4.57916670	     -9.10943551	     -4.30916736	      4.67604756	      0.26160479	      0.85114140	     -0.01833611	     36.16606397	     -6.30598230	     -1.33690691	     44.82220991	      0.78229514	     10.16087923	    -25.37271265	     -7.49999987	     37.40653597	     -8.93541176	      1.30352497	     50.98746064	      0.88989907	     20.44838800	    -13.30496636	     -7.49999987	    -11.72802972	      2.10947574	     -4.45010472	      8.69267583	     -2.86455592	     14.61390085	    101.20245693	     88.97844688	     17.56002049	      1.16148995	     19.31794712	    108.65291056	     68.99374550
      4.58333330	     -9.10867436	     -4.18847325	      4.64832509	      0.26536978	      0.85765780	     -0.01412172	     34.81648994	     -6.43134692	     -1.95277668	     42.60525995	      0.74360206	      9.31294639	    -24.64421507	     -7.49999987	     35.77821685	     -9.01517338	      0.75203787	     48.45227755	      0.84565177	     19.37475880	    -13.01407693	     -7.49999987	    -11.02865996	      1.90287611	     -4.78041462	      8.27660845	     -2.54831910	     14.51544552	     99.46032477	     89.04193272	     16.90517285	      1.47986229	     18.80351028	    107.65324945	     68.74054155
      4.58750000	     -9.20127364	     -4.02551914	      4.59717891	      0.26001648	      0.85824872	     -0.01829390	     34.33870757	     -6.80962740	     -2.18017860	     41.59851363	      0.72603103	      8.83046231	    -23.33614211	     -7.49999987	     35.07449585	     -8.67470638	      0.50103949	     46.93891544	      0.81923862	     18.60981582	    -13.31774545	     -7.49999987	    -10.51325604	      1.92978114	     -5.20928788	      8.36709343	     -2.39889358	     14.59879516	     97.85259306	     89.05002305	     17.17434533	      1.36098486	     18.43430998	    106.67784359	     68.42372407
      4.59166670	     -9.29994657	     -3.96940987	      4.39047823	      0.25973886	      0.86470031	     -0.01790074	     33.74827995	     -6.89722934	     -2.78857000	     40.30280925	      0.70341672	      8.27684659	    -22.77578127	     -7.49999987	     34.37020584	     -8.56361020	      0.22350415	     45.52917835	      0.79463407	     17.57559928	    -14.12345822	     -7.49999987	    -10.21570367	      2.08723186	     -5.29189485	      8.66986441	     -2.46961262	     14.87743693	     96.75510216	     89.02215085	     17.39250160	      1.30201951	     18.20910943	    105.73880837	     68.09833679
      4.59583330	     -9.45041593	     -3.87196278	      4.37351045	      0.25930237	      0.86517512	     -0.01809313	     33.51366977	     -7.18546770	     -3.28045221	     39.38111492	      0.68733012	      7.64805877	    -22.56408198	     -7.49999987	     34.05114554	     -8.44173480	     -0.13537411	     44.55274029	      0.77759201	     16.80352597	    -14.53495389	     -7.49999987	     -9.76549062	      2.34178862	     -5.44236346	      8.88194624	     -2.46945626	     14.87475784	     95.77948297	     88.02718604	     17.96484837	      1.07720969	     18.35195303	    104.60994814	     67.59966191
